<svg width="162" height="168" viewBox="0 0 162 168" fill="none" xmlns="http://www.w3.org/2000/svg">
<path d="M85.6406 12.9044C119.238 12.9044 146.695 40.2404 146.695 74.0801C146.695 107.92 119.359 135.256 85.6406 135.256C51.9227 135.256 24.586 107.92 24.5859 74.0801C24.5859 40.2398 51.9227 12.9044 85.6406 12.9044Z" fill="url(#paint0_linear_22773_4414)" stroke="#46C0A2"/>
<path d="M151.017 104.419C153.49 104.419 155.495 106.423 155.495 108.896C155.495 111.369 153.49 113.374 151.017 113.374C148.544 113.374 146.539 111.369 146.539 108.896C146.539 106.423 148.544 104.419 151.017 104.419Z" fill="url(#paint1_linear_22773_4414)" stroke="#46C0A2"/>
<path d="M158.306 88.149C159.907 88.149 161.205 89.4471 161.205 91.0484C161.205 92.6497 159.907 93.9478 158.306 93.9478C156.704 93.9478 155.406 92.6497 155.406 91.0484C155.406 89.4471 156.704 88.149 158.306 88.149Z" fill="url(#paint2_linear_22773_4414)" stroke="#46C0A2"/>
<path d="M27.3604 27.2296C28.9617 27.2296 30.2597 28.5277 30.2598 30.129C30.2598 31.7303 28.9617 33.0284 27.3604 33.0284C25.759 33.0283 24.4609 31.7303 24.4609 30.129C24.461 28.5277 25.759 27.2296 27.3604 27.2296Z" fill="url(#paint3_linear_22773_4414)" stroke="#46C0A2"/>
<path d="M6.60254 86.9641C9.81308 86.9641 12.416 89.567 12.416 92.7775C12.4159 95.9879 9.813 98.5909 6.60254 98.591C3.392 98.591 0.78918 95.988 0.789062 92.7775C0.789062 89.567 3.39193 86.9641 6.60254 86.9641Z" fill="url(#paint4_linear_22773_4414)" stroke="#46C0A2"/>
<path d="M130.899 73.0499V73.049C130.97 73.294 131.158 73.4804 131.402 73.5519V73.5529L133.896 74.3048L131.402 75.0568C131.189 75.1191 131 75.2775 130.921 75.5089L130.907 75.5597L130.155 78.0529L129.403 75.5597H129.402C129.331 75.3149 129.144 75.1278 128.899 75.0568H128.9L126.405 74.3038L128.894 73.5529L128.893 73.5519C129.141 73.4793 129.331 73.288 129.399 73.0372L129.398 73.0363L130.147 70.5616L130.899 73.0499Z" fill="#ADB6C8" stroke="#46C0A2"/>
<path d="M111.478 37.843V37.842C111.549 38.087 111.736 38.2736 111.98 38.345V38.3459L114.474 39.0969L111.98 39.8489V39.8499C111.767 39.9122 111.578 40.0704 111.499 40.302L111.485 40.3528L110.733 42.8459L109.981 40.3528H109.98C109.909 40.1078 109.723 39.921 109.478 39.8499L109.479 39.8489L106.983 39.0969L109.472 38.3459L109.471 38.345C109.719 38.2724 109.909 38.0811 109.978 37.8303L109.977 37.8293L110.726 35.3547L111.478 37.843Z" fill="#ADB6C8" stroke="#46C0A2"/>
<path d="M62.1465 42.2676L62.1475 42.2666C62.2158 42.5006 62.395 42.6786 62.6289 42.7471V42.749L64.6113 43.3467L62.6289 43.9443C62.4108 44.0082 62.2202 44.1785 62.1543 44.4268H62.1533L61.5557 46.4092L60.958 44.4268H60.957C60.8885 44.1922 60.7093 44.0125 60.4746 43.9443H60.4756L58.4912 43.3457L60.4697 42.749L60.4688 42.7471C60.7028 42.6786 60.8818 42.5006 60.9502 42.2666L60.9512 42.2676L61.5488 40.2891L62.1465 42.2676Z" fill="#ADB6C8" stroke="#46C0A2"/>
<path d="M41.5098 94.6489V94.6479C41.5663 94.8705 41.7247 95.077 41.9775 95.1616V95.1625L41.9912 95.1674V95.1664L44.1768 95.9203L41.9912 96.6733C41.7445 96.7503 41.572 96.9505 41.5166 97.1918H41.5156L40.9229 99.4389L40.3291 97.1918C40.2723 96.9692 40.1136 96.7623 39.8604 96.6782H39.8613L39.8477 96.6733H39.8467L37.6611 95.9194L39.8555 95.1625L39.8545 95.1616C40.1075 95.077 40.2657 94.8706 40.3223 94.6479L40.3232 94.6489L40.916 92.4037L41.5098 94.6489Z" fill="#ADB6C8" stroke="#46C0A2"/>
<path d="M36.9551 58.261V58.2601C37.0176 58.4732 37.1815 58.6367 37.3945 58.6995V58.7005L38.3564 58.9905L37.3945 59.2806V59.2816C37.1972 59.3398 37.0219 59.4941 36.96 59.721L36.6689 60.6839L36.3789 59.721C36.3162 59.5077 36.1518 59.3442 35.9385 59.2816L35.9395 59.2806L34.9756 58.9896L35.9346 58.7005L35.9336 58.6995C36.1469 58.6369 36.3104 58.4734 36.373 58.2601L36.374 58.261L36.6641 57.2991L36.9551 58.261Z" fill="#ADB6C8" stroke="#46C0A2"/>
<path d="M58.8066 78.5435V78.5425C58.8692 78.7557 59.0331 78.9192 59.2461 78.982V78.983L60.208 79.273L59.2461 79.563V79.564C59.0488 79.6223 58.8734 79.7766 58.8115 80.0035L58.5205 80.9664L58.2305 80.0035C58.1678 79.7901 58.0034 79.6266 57.79 79.564L57.791 79.563L56.8271 79.272L57.7861 78.983L57.7852 78.982C57.9985 78.9194 58.1619 78.7559 58.2246 78.5425L58.2256 78.5435L58.5156 77.5816L58.8066 78.5435Z" fill="#ADB6C8" stroke="#46C0A2"/>
<path d="M76.1973 20.7631V20.7621C76.2598 20.9753 76.4237 21.1388 76.6367 21.2016V21.2026L77.5986 21.4926L76.6367 21.7827V21.7836C76.4394 21.8419 76.264 21.9962 76.2021 22.2231L75.9111 23.186L75.6211 22.2231C75.5584 22.0098 75.394 21.8462 75.1807 21.7836L75.1816 21.7827L74.2178 21.4916L75.1768 21.2026L75.1758 21.2016C75.3891 21.139 75.5526 20.9755 75.6152 20.7621L75.6162 20.7631L75.9062 19.8012L76.1973 20.7631Z" fill="#ADB6C8" stroke="#46C0A2"/>
<path d="M124.791 108.604V108.603C124.854 108.817 125.017 108.98 125.23 109.043V109.044L126.192 109.334L125.23 109.624V109.625C125.033 109.683 124.858 109.837 124.796 110.064L124.505 111.027L124.215 110.064C124.152 109.851 123.988 109.688 123.774 109.625L123.775 109.624L122.812 109.333L123.771 109.044L123.77 109.043C123.983 108.98 124.146 108.817 124.209 108.603L124.21 108.604L124.5 107.643L124.791 108.604Z" fill="#ADB6C8" stroke="#46C0A2"/>
<path d="M68.8008 88.8134L68.8242 88.8808L68.8652 88.9394L68.8662 88.9413C68.8676 88.9433 68.8703 88.9461 68.873 88.9501C68.8786 88.9582 68.8873 88.9702 68.8984 88.9863C68.9208 89.0186 68.9539 89.0676 68.9971 89.1308C69.0835 89.2573 69.2096 89.443 69.3662 89.6796C69.6797 90.1534 70.1159 90.8299 70.6074 91.6386C71.5927 93.2597 72.791 95.4003 73.6621 97.5009C74.0975 98.551 74.4466 99.5802 74.6484 100.522C74.8515 101.47 74.8986 102.297 74.7598 102.956C74.6244 103.599 74.3165 104.073 73.7939 104.378C73.2527 104.693 72.4177 104.864 71.1641 104.749C64.4046 104.13 59.8184 106.459 57.3477 108.275C57.1474 108.422 56.8235 108.448 56.5146 108.313C56.2067 108.179 56.0549 107.952 56.0547 107.741V97.5029C56.0547 95.3176 57.6197 92.8804 59.9531 90.455C62.1009 88.2227 64.8092 86.0918 67.251 84.2939L68.8008 88.8134Z" fill="white" stroke="#46C0A2"/>
<path d="M105.296 84.2988C107.74 86.1282 110.449 88.2587 112.598 90.4833C114.932 92.8999 116.495 95.3186 116.495 97.5029V107.741C116.495 107.952 116.343 108.179 116.035 108.313C115.726 108.448 115.402 108.423 115.202 108.275C112.731 106.459 108.145 104.13 101.386 104.749C100.132 104.864 99.2971 104.694 98.7559 104.378C98.2333 104.073 97.9254 103.599 97.79 102.956C97.6512 102.297 97.6983 101.47 97.9014 100.522C98.1032 99.5802 98.4523 98.551 98.8877 97.5009C99.7588 95.4003 100.957 93.2597 101.942 91.6386C102.434 90.8299 102.87 90.1534 103.184 89.6796C103.34 89.443 103.466 89.2573 103.553 89.1308C103.596 89.0676 103.629 89.0186 103.651 88.9863C103.662 88.9702 103.671 88.9582 103.677 88.9501C103.68 88.9461 103.682 88.9433 103.684 88.9413L103.685 88.9394L103.686 88.9384L103.726 88.8808L103.749 88.8134L105.296 84.2988Z" fill="white" stroke="#46C0A2"/>
<g filter="url(#filter0_d_22773_4414)">
<path d="M86.2425 30.6771C76.5061 37.6105 64.852 54.649 66.991 76.3344C69.0563 98.0197 70.9003 108.715 74.8834 111.296C78.9402 113.878 82.9233 114.468 86.2425 114.468C89.5617 114.468 93.5448 113.878 97.6016 111.296C101.658 108.715 103.429 98.0197 105.494 76.3344C107.559 54.649 95.9051 37.6105 86.2425 30.6771Z" fill="white"/>
<path d="M86.2412 31.2953C95.7214 38.2707 107.021 55.0196 104.996 76.2865C103.963 87.1307 103.007 95.1997 101.806 100.875C101.205 103.713 100.547 105.931 99.7998 107.588C99.0503 109.25 98.2307 110.303 97.333 110.874C93.3797 113.39 89.4983 113.968 86.2422 113.968C82.9861 113.968 79.1046 113.39 75.1514 110.874C74.2722 110.303 73.4624 109.25 72.7168 107.589C71.9722 105.931 71.3122 103.713 70.707 100.875C69.4967 95.1997 68.522 87.1301 67.4893 76.2865L67.4883 76.2855L67.3994 75.2816C65.7473 54.4921 76.8413 38.1598 86.2412 31.2953Z" stroke="#46C0A2"/>
</g>
<g filter="url(#filter1_d_22773_4414)">
<path d="M93.6143 117.492H78.8622C77.682 117.492 76.7969 116.533 76.7969 115.427V111.812H95.7533V115.353C95.6795 116.533 94.7207 117.492 93.6143 117.492Z" fill="white"/>
<path d="M95.2529 112.312V115.33C95.1899 116.272 94.4262 116.992 93.6143 116.992H78.8623C77.9699 116.992 77.2969 116.269 77.2969 115.427V112.312H95.2529Z" stroke="#46C0A2"/>
</g>
<path d="M86.7686 82.8087V109.026H85.7031V82.8087H86.7686Z" fill="white" stroke="#46C0A2"/>
<path d="M86.2398 67.4841C90.2727 67.4841 93.5421 64.2148 93.5421 60.1819C93.5421 56.149 90.2727 52.8797 86.2398 52.8797C82.2068 52.8797 78.9375 56.149 78.9375 60.1819C78.9375 64.2148 82.2068 67.4841 86.2398 67.4841Z" fill="white" stroke="#46C0A2" stroke-width="4" stroke-miterlimit="10"/>
<path d="M85.5732 121.311C91.2693 121.311 95.8426 125.953 95.8428 131.579C95.8428 134.51 94.654 143.446 92.7119 151.665C91.7417 155.771 90.5911 159.666 89.3203 162.525C88.6838 163.956 88.0288 165.101 87.3701 165.879C86.7028 166.668 86.1009 167 85.5732 167C85.0457 167 84.4444 166.667 83.7773 165.879C83.1186 165.101 82.4636 163.956 81.8271 162.525C80.5564 159.666 79.4057 155.771 78.4355 151.665C76.4935 143.446 75.3047 134.51 75.3047 131.579C75.3049 125.881 79.8751 121.311 85.5732 121.311Z" fill="white" stroke="#46C0A2"/>
<path d="M85.5811 128.319C87.8127 128.319 89.6543 130.16 89.6543 132.392C89.6543 134.365 89.0553 138.488 88.1797 142.728C87.4295 146.36 86.488 150.01 85.5781 152.406C84.6704 150.034 83.7315 146.39 82.9824 142.755C82.1069 138.506 81.5078 134.365 81.5078 132.392C81.5078 130.16 83.3493 128.319 85.5811 128.319Z" fill="white" stroke="#46C0A2"/>
<path d="M155.181 19.4023C157.92 19.4025 160.141 21.6238 160.141 24.3633C160.14 27.1027 157.92 29.3231 155.181 29.3232C152.441 29.3232 150.22 27.1028 150.22 24.3633C150.22 21.6237 152.441 19.4023 155.181 19.4023Z" fill="url(#paint5_linear_22773_4414)" stroke="#46C0A2" stroke-width="3.09589"/>
<path d="M17.6934 2.04688C21.6311 2.04688 24.8241 5.23908 24.8242 9.17676C24.8242 13.1145 21.6312 16.3066 17.6934 16.3066C13.7556 16.3065 10.5635 13.1144 10.5635 9.17676C10.5636 5.23918 13.7557 2.04705 17.6934 2.04688Z" fill="url(#paint6_linear_22773_4414)" stroke="#46C0A2" stroke-width="3.09589"/>
<path d="M9.01074 113.125C10.5522 113.125 11.8017 114.375 11.8018 115.916C11.8018 117.457 10.5522 118.707 9.01074 118.707C7.46933 118.707 6.21973 117.457 6.21973 115.916C6.21979 114.375 7.46937 113.125 9.01074 113.125Z" fill="url(#paint7_linear_22773_4414)" stroke="#46C0A2" stroke-width="3.09589"/>
<mask id="path-27-inside-1_22773_4414" fill="white">
<ellipse cx="143.959" cy="139.781" rx="2.16951" ry="2.16949"/>
</mask>
<ellipse cx="143.959" cy="139.781" rx="2.16951" ry="2.16949" fill="url(#paint8_linear_22773_4414)"/>
<path d="M146.128 139.781H143.032C143.032 139.269 143.447 138.855 143.959 138.855V141.951V145.046C146.867 145.046 149.224 142.689 149.224 139.781H146.128ZM143.959 141.951V138.855C144.47 138.855 144.885 139.269 144.885 139.781H141.789H138.693C138.693 142.689 141.051 145.046 143.959 145.046V141.951ZM141.789 139.781H144.885C144.885 140.293 144.47 140.707 143.959 140.707V137.612V134.516C141.051 134.516 138.693 136.873 138.693 139.781H141.789ZM143.959 137.612V140.707C143.447 140.707 143.032 140.293 143.032 139.781H146.128H149.224C149.224 136.873 146.867 134.516 143.959 134.516V137.612Z" fill="#46C0A2" mask="url(#path-27-inside-1_22773_4414)"/>
<mask id="path-29-inside-2_22773_4414" fill="white">
<ellipse cx="92.7555" cy="4.40381" rx="2.16951" ry="2.16949"/>
</mask>
<ellipse cx="92.7555" cy="4.40381" rx="2.16951" ry="2.16949" fill="url(#paint9_linear_22773_4414)"/>
<path d="M94.925 4.40381H91.8291C91.8291 3.89214 92.2439 3.47741 92.7555 3.47741V6.5733V9.66919C95.6634 9.66919 98.0209 7.31183 98.0209 4.40381H94.925ZM92.7555 6.5733V3.47741C93.267 3.47741 93.6818 3.89214 93.6818 4.40381H90.5859H87.49C87.49 7.31183 89.8475 9.66919 92.7555 9.66919V6.5733ZM90.5859 4.40381H93.6818C93.6818 4.91547 93.267 5.3302 92.7555 5.3302V2.23431V-0.861577C89.8475 -0.861577 87.49 1.49579 87.49 4.40381H90.5859ZM92.7555 2.23431V5.3302C92.2439 5.3302 91.8291 4.91547 91.8291 4.40381H94.925H98.0209C98.0209 1.49579 95.6634 -0.861577 92.7555 -0.861577V2.23431Z" fill="#46C0A2" mask="url(#path-29-inside-2_22773_4414)"/>
<mask id="path-31-inside-3_22773_4414" fill="white">
<ellipse cx="54.5764" cy="153.665" rx="3.03732" ry="3.03729"/>
</mask>
<ellipse cx="54.5764" cy="153.665" rx="3.03732" ry="3.03729" fill="url(#paint10_linear_22773_4414)"/>
<path d="M57.6137 153.665H54.5178C54.5178 153.665 54.5179 153.662 54.519 153.657C54.52 153.652 54.5217 153.647 54.5237 153.642C54.5276 153.632 54.5319 153.627 54.535 153.624C54.538 153.621 54.5434 153.617 54.5526 153.613C54.5575 153.611 54.5627 153.609 54.5679 153.608C54.5732 153.607 54.5764 153.607 54.5764 153.607V156.703V159.799C57.9636 159.799 60.7096 157.053 60.7096 153.665H57.6137ZM54.5764 156.703V153.607C54.5764 153.607 54.5796 153.607 54.5849 153.608C54.5901 153.609 54.5953 153.611 54.6001 153.613C54.6094 153.617 54.6147 153.621 54.6178 153.624C54.6208 153.627 54.6252 153.632 54.6291 153.642C54.6311 153.647 54.6328 153.652 54.6338 153.657C54.6349 153.662 54.635 153.665 54.635 153.665H51.5391H48.4432C48.4432 157.053 51.1891 159.799 54.5764 159.799V156.703ZM51.5391 153.665H54.635C54.635 153.665 54.6349 153.669 54.6338 153.674C54.6328 153.679 54.6311 153.684 54.6291 153.689C54.6252 153.698 54.6208 153.704 54.6178 153.707C54.6147 153.71 54.6094 153.714 54.6001 153.718C54.5953 153.72 54.5901 153.722 54.5849 153.723C54.5796 153.724 54.5764 153.724 54.5764 153.724V150.628V147.532C51.1891 147.532 48.4432 150.278 48.4432 153.665H51.5391ZM54.5764 150.628V153.724C54.5764 153.724 54.5732 153.724 54.5679 153.723C54.5627 153.722 54.5575 153.72 54.5526 153.718C54.5434 153.714 54.538 153.71 54.535 153.707C54.5319 153.704 54.5276 153.698 54.5237 153.689C54.5217 153.684 54.52 153.679 54.519 153.674C54.5179 153.669 54.5178 153.665 54.5178 153.665H57.6137H60.7096C60.7096 150.278 57.9636 147.532 54.5764 147.532V150.628Z" fill="#46C0A2" mask="url(#path-31-inside-3_22773_4414)"/>
<ellipse cx="106.212" cy="148.892" rx="0.867806" ry="0.867797" fill="url(#paint11_linear_22773_4414)"/>
<mask id="path-34-inside-4_22773_4414" fill="white">
<ellipse cx="148.302" cy="96.3896" rx="2.16951" ry="2.16949"/>
</mask>
<ellipse cx="148.302" cy="96.3896" rx="2.16951" ry="2.16949" fill="url(#paint12_linear_22773_4414)"/>
<path d="M150.472 96.3896H147.376C147.376 95.878 147.791 95.4632 148.302 95.4632V98.5591V101.655C151.21 101.655 153.568 99.2977 153.568 96.3896H150.472ZM148.302 98.5591V95.4632C148.814 95.4632 149.229 95.878 149.229 96.3896H146.133H143.037C143.037 99.2977 145.394 101.655 148.302 101.655V98.5591ZM146.133 96.3896H149.229C149.229 96.9013 148.814 97.316 148.302 97.316V94.2202V91.1243C145.394 91.1243 143.037 93.4816 143.037 96.3896H146.133ZM148.302 94.2202V97.316C147.791 97.316 147.376 96.9013 147.376 96.3896H150.472H153.568C153.568 93.4816 151.21 91.1243 148.302 91.1243V94.2202Z" fill="#46C0A2" mask="url(#path-34-inside-4_22773_4414)"/>
<ellipse cx="1.20374" cy="65.5842" rx="0.867806" ry="0.867797" fill="url(#paint13_linear_22773_4414)"/>
<defs>
<filter id="filter0_d_22773_4414" x="44.7344" y="19.6771" width="83" height="127.791" filterUnits="userSpaceOnUse" color-interpolation-filters="sRGB">
<feFlood flood-opacity="0" result="BackgroundImageFix"/>
<feColorMatrix in="SourceAlpha" type="matrix" values="0 0 0 0 0 0 0 0 0 0 0 0 0 0 0 0 0 0 127 0" result="hardAlpha"/>
<feOffset dy="11"/>
<feGaussianBlur stdDeviation="11"/>
<feColorMatrix type="matrix" values="0 0 0 0 0.397708 0 0 0 0 0.47749 0 0 0 0 0.575 0 0 0 0.27 0"/>
<feBlend mode="normal" in2="BackgroundImageFix" result="effect1_dropShadow_22773_4414"/>
<feBlend mode="normal" in="SourceGraphic" in2="effect1_dropShadow_22773_4414" result="shape"/>
</filter>
<filter id="filter1_d_22773_4414" x="54.7969" y="100.812" width="62.9531" height="49.6795" filterUnits="userSpaceOnUse" color-interpolation-filters="sRGB">
<feFlood flood-opacity="0" result="BackgroundImageFix"/>
<feColorMatrix in="SourceAlpha" type="matrix" values="0 0 0 0 0 0 0 0 0 0 0 0 0 0 0 0 0 0 127 0" result="hardAlpha"/>
<feOffset dy="11"/>
<feGaussianBlur stdDeviation="11"/>
<feColorMatrix type="matrix" values="0 0 0 0 0.397708 0 0 0 0 0.47749 0 0 0 0 0.575 0 0 0 0.27 0"/>
<feBlend mode="normal" in2="BackgroundImageFix" result="effect1_dropShadow_22773_4414"/>
<feBlend mode="normal" in="SourceGraphic" in2="effect1_dropShadow_22773_4414" result="shape"/>
</filter>
<linearGradient id="paint0_linear_22773_4414" x1="24.0859" y1="74.08" x2="147.196" y2="74.08" gradientUnits="userSpaceOnUse">
<stop stop-color="#6DA015"/>
<stop offset="1" stop-color="#46C0A2"/>
</linearGradient>
<linearGradient id="paint1_linear_22773_4414" x1="146.039" y1="108.896" x2="155.995" y2="108.896" gradientUnits="userSpaceOnUse">
<stop stop-color="#6DA015"/>
<stop offset="1" stop-color="#46C0A2"/>
</linearGradient>
<linearGradient id="paint2_linear_22773_4414" x1="154.906" y1="91.0484" x2="161.705" y2="91.0484" gradientUnits="userSpaceOnUse">
<stop stop-color="#6DA015"/>
<stop offset="1" stop-color="#46C0A2"/>
</linearGradient>
<linearGradient id="paint3_linear_22773_4414" x1="23.9609" y1="30.129" x2="30.7599" y2="30.129" gradientUnits="userSpaceOnUse">
<stop stop-color="#6DA015"/>
<stop offset="1" stop-color="#46C0A2"/>
</linearGradient>
<linearGradient id="paint4_linear_22773_4414" x1="0.289062" y1="92.7773" x2="12.9157" y2="92.7773" gradientUnits="userSpaceOnUse">
<stop stop-color="#6DA015"/>
<stop offset="1" stop-color="#46C0A2"/>
</linearGradient>
<linearGradient id="paint5_linear_22773_4414" x1="148.672" y1="24.363" x2="161.689" y2="24.363" gradientUnits="userSpaceOnUse">
<stop stop-color="#6DA015"/>
<stop offset="1" stop-color="#46C0A2"/>
</linearGradient>
<linearGradient id="paint6_linear_22773_4414" x1="9.01562" y1="9.177" x2="26.3717" y2="9.177" gradientUnits="userSpaceOnUse">
<stop stop-color="#6DA015"/>
<stop offset="1" stop-color="#46C0A2"/>
</linearGradient>
<linearGradient id="paint7_linear_22773_4414" x1="4.67188" y1="115.916" x2="13.3499" y2="115.916" gradientUnits="userSpaceOnUse">
<stop stop-color="#6DA015"/>
<stop offset="1" stop-color="#46C0A2"/>
</linearGradient>
<linearGradient id="paint8_linear_22773_4414" x1="141.789" y1="139.781" x2="146.128" y2="139.781" gradientUnits="userSpaceOnUse">
<stop stop-color="#6DA015"/>
<stop offset="1" stop-color="#46C0A2"/>
</linearGradient>
<linearGradient id="paint9_linear_22773_4414" x1="90.5859" y1="4.40381" x2="94.925" y2="4.40381" gradientUnits="userSpaceOnUse">
<stop stop-color="#6DA015"/>
<stop offset="1" stop-color="#46C0A2"/>
</linearGradient>
<linearGradient id="paint10_linear_22773_4414" x1="51.5391" y1="153.665" x2="57.6137" y2="153.665" gradientUnits="userSpaceOnUse">
<stop stop-color="#6DA015"/>
<stop offset="1" stop-color="#46C0A2"/>
</linearGradient>
<linearGradient id="paint11_linear_22773_4414" x1="105.344" y1="148.892" x2="107.079" y2="148.892" gradientUnits="userSpaceOnUse">
<stop stop-color="#6DA015"/>
<stop offset="1" stop-color="#46C0A2"/>
</linearGradient>
<linearGradient id="paint12_linear_22773_4414" x1="146.133" y1="96.3896" x2="150.472" y2="96.3896" gradientUnits="userSpaceOnUse">
<stop stop-color="#6DA015"/>
<stop offset="1" stop-color="#46C0A2"/>
</linearGradient>
<linearGradient id="paint13_linear_22773_4414" x1="0.335938" y1="65.5842" x2="2.07155" y2="65.5842" gradientUnits="userSpaceOnUse">
<stop stop-color="#6DA015"/>
<stop offset="1" stop-color="#46C0A2"/>
</linearGradient>
</defs>
</svg>
